<?xml version="1.0" encoding="utf-8"?><svg xmlns="http://www.w3.org/2000/svg" xmlns:xlink="http://www.w3.org/1999/xlink"><symbol viewBox="0 0 344.96 344.96" id="check" xmlns="http://www.w3.org/2000/svg"><g data-name="Слой 2"><path d="M321.85 86.24l-40-23.11-23.1-40H212.5L172.48 0l-40 23.11H86.24l-23.11 40-40 23.1v46.21L0 172.48l23.11 40v46.21l40 23.11 23.11 40h46.21l40 23.1 40-23.11h46.21l23.11-40 40-23.11V212.5l23.11-40-23.11-40V86.24zM156.91 243.07a16.79 16.79 0 01-23.34 0l-50.45-50.44a16.19 16.19 0 010-22.89l13.35-13.35a16.19 16.19 0 0122.89 0l25.87 25.87 80.34-80.35a16.19 16.19 0 0122.89 0l13.35 13.35a16.19 16.19 0 010 22.89z" data-name="Capa 1"/></g></symbol><symbol viewBox="0 0 45.43 45.43" id="contact" xmlns="http://www.w3.org/2000/svg"><defs><style>.bcls-1{fill:#efe6d8}</style></defs><g id="bСлой_2" data-name="Слой 2"><g id="bСлой_1-2" data-name="Слой 1"><path class="bcls-1" d="M32.25 0H13.18a3.35 3.35 0 00-3.34 3.34V42.1a3.34 3.34 0 003.34 3.33h19.07a3.34 3.34 0 003.34-3.33V3.34A3.35 3.35 0 0032.25 0zM11.36 6.06h22.72v28.77H11.36zm1.82-4.55h19.07a1.83 1.83 0 011.83 1.83v1.2H11.36v-1.2a1.82 1.82 0 011.82-1.83zm19.07 42.41H13.18a1.82 1.82 0 01-1.82-1.82v-5.75h22.72v5.75a1.83 1.83 0 01-1.83 1.82z"/><path class="bcls-1" d="M22.72 37.11a3 3 0 103 3 3 3 0 00-3-3zm0 4.54a1.52 1.52 0 111.51-1.52 1.52 1.52 0 01-1.51 1.52zM19.69 3.79h3a.76.76 0 000-1.52h-3a.76.76 0 100 1.52zm5.31 0h.76a.76.76 0 000-1.52H25a.76.76 0 000 1.52zm17.87-.33a.76.76 0 10-1.07 1.07 7.26 7.26 0 010 10.26.75.75 0 000 1.07.74.74 0 00.53.23.76.76 0 00.54-.23 8.78 8.78 0 000-12.4z"/><path class="bcls-1" d="M39.68 5.18a.77.77 0 00-1.07 0 .75.75 0 000 1.07 5 5 0 010 7 .76.76 0 001.07 1.07 6.48 6.48 0 000-9.17zM3.64 4.53a.76.76 0 00-1.08-1.07 8.79 8.79 0 000 12.4.75.75 0 001.08 0 .77.77 0 000-1.07 7.26 7.26 0 010-10.26z"/><path class="bcls-1" d="M6.82 5a.77.77 0 00-1.07 0 6.51 6.51 0 000 9.17.76.76 0 00.54.22.73.73 0 00.53-.22.75.75 0 000-1.07 5 5 0 010-7 .75.75 0 000-1.1z"/></g></g></symbol><symbol viewBox="0 0 34 38.59" id="get1" xmlns="http://www.w3.org/2000/svg"><defs><style>.ccls-1{fill:#fff}</style></defs><g id="cСлой_2" data-name="Слой 2"><g id="cСлой_1-2" data-name="Слой 1"><path class="ccls-1" d="M17.45 21.06a.81.81 0 00-.22 0A1.43 1.43 0 0116 19.63a.64.64 0 00-.63-.64.64.64 0 00-.64.64 2.72 2.72 0 002 2.61v.63a.64.64 0 00.64.63.63.63 0 00.63-.63v-.6a2.7 2.7 0 00-.56-5.35 1.44 1.44 0 111.44-1.43.64.64 0 001.27 0A2.72 2.72 0 0018 12.84v-.57a.63.63 0 00-.63-.64.64.64 0 00-.64.64v.61a2.7 2.7 0 00.71 5.31 1.44 1.44 0 01.06 2.87z"/><path class="ccls-1" d="M8.22 17.61a9.18 9.18 0 109.17-9.18 9.18 9.18 0 00-9.17 9.18zm9.17-7.92a7.92 7.92 0 11-7.91 7.92 7.92 7.92 0 017.91-7.92z"/><path class="ccls-1" d="M29.69 28.35l-5 2.34a4 4 0 00-3.45-2.12l-4.57-.13a4.77 4.77 0 01-2.09-.54l-.46-.24a8.22 8.22 0 00-7.61 0V26.6A.64.64 0 006 26l-5-.14a.65.65 0 00-.65.62l-.3 11a.64.64 0 00.62.66l5 .13a.62.62 0 00.63-.61v-.53l1.3-.7a2.26 2.26 0 011.67-.18l7.79 2.19a8.21 8.21 0 001.71.18 8.4 8.4 0 003.53-.77h.08l11.29-7.3a.65.65 0 00.21-.85 3.21 3.21 0 00-4.19-1.35zM1.28 36.86l.27-9.75 3.75.1L5 37zm20.49-.17a7.19 7.19 0 01-4.39.49L9.62 35a3.49 3.49 0 00-2.62.29l-.67.35.18-6.48a7 7 0 017.07-.38l.46.25a6.18 6.18 0 002.63.68l4.58.12A2.77 2.77 0 0123.9 32l-6.82-.18a.62.62 0 00-.65.61.63.63 0 00.61.65l7.53.21a.64.64 0 00.63-.62 3.78 3.78 0 00-.06-.82l5.08-2.4a1.93 1.93 0 012.19.31zM18 6.65v-6a.64.64 0 00-.61-.65.63.63 0 00-.63.63v6a.63.63 0 00.63.63.64.64 0 00.61-.61zm4.78 0V3.8a.64.64 0 00-.64-.63.63.63 0 00-.63.63v2.85a.63.63 0 00.63.63.64.64 0 00.64-.63zm-9.5 0V3.8a.63.63 0 00-.63-.63.64.64 0 00-.65.63v2.85a.64.64 0 00.64.63.63.63 0 00.64-.63z"/></g></g></symbol><symbol viewBox="0 0 33 33" id="get2" xmlns="http://www.w3.org/2000/svg"><defs><style>.dcls-1{fill:#fff}</style></defs><g id="dСлой_2" data-name="Слой 2"><g id="dСлой_1-2" data-name="Слой 1"><g id="dsurface1"><path class="dcls-1" d="M27.5 5.83V2.75A2.75 2.75 0 0024.75 0h-22A2.75 2.75 0 000 2.75v12.1a2.75 2.75 0 002.47 2.72l2.07 5.37a2.75 2.75 0 003.55 1.58l12.91-5a8 8 0 00.68 7.06l.32.51v5.34a.55.55 0 00.55.55h9.9a.55.55 0 00.55-.55V14.3a7.18 7.18 0 00-2.11-5.07zm0 3.29l1.67 4.33a1.65 1.65 0 01-1 2.13l-.95.37a2.78 2.78 0 00.23-1.1zM1.1 14.85V2.75A1.65 1.65 0 012.75 1.1h22a1.65 1.65 0 011.65 1.65v12.09a1.26 1.26 0 010 .28l-5-5a2.94 2.94 0 00-4.24 4.06l2.15 2.34H2.75a1.65 1.65 0 01-1.65-1.67zm7.05 2.75l-3.92 1.51-.57-1.51zm-.46 5.89a1.65 1.65 0 01-2.13-.95l-.93-2.41 6.57-2.53h9.05l.71.78zM31.9 31.9h-8.8v-4.4h8.8zm0-5.5h-9l-.28-.4a6.86 6.86 0 01-.14-7 .55.55 0 00-.07-.64l-4.51-4.94a1.85 1.85 0 01.1-2.57 1.84 1.84 0 012.57 0l8.76 8.76.78-.78-2-2 .57-.22a2.76 2.76 0 001.57-3.56l-1.92-4.83L30.12 10a6.13 6.13 0 011.78 4.3z"/><path class="dcls-1" d="M6.27 7.7A1.43 1.43 0 007.7 6.27V3.63A1.43 1.43 0 006.27 2.2H3.63A1.43 1.43 0 002.2 3.63v2.64A1.43 1.43 0 003.63 7.7zm-3-1.43V5.5H4.4V4.4H3.3v-.77a.33.33 0 01.33-.33h2.64a.33.33 0 01.33.33v.77H5.5v1.1h1.1v.77a.33.33 0 01-.33.33H3.63a.33.33 0 01-.33-.33zm-.52 3.08H5v1.1H2.75zm0 3.3H5v1.1H2.75zm9.9 0h2.2v1.1h-2.2zm-6.6-3.3h2.2v1.1h-2.2zm3.3 0h2.2v1.1h-2.2zm3.3 0h2.2v1.1h-2.2zm10.45-6.6h1.1V4.4h-1.1zm-2.2 0H22V4.4h-1.1zm-2.2 0h1.1V4.4h-1.1zm-2.2 0h1.1V4.4h-1.1zm7.7 25.85h1.1v1.1h-1.1z"/></g></g></g></symbol><symbol viewBox="0 0 35.01 35" id="get3" xmlns="http://www.w3.org/2000/svg"><defs><style>.ecls-1{fill:#fff}</style></defs><g id="eСлой_2" data-name="Слой 2"><g id="eСлой_1-2" data-name="Слой 1"><path class="ecls-1" d="M34.94 8.29a1.74 1.74 0 00-2.14-1.23 1.71 1.71 0 00-1.06.82l-.3.5a.59.59 0 00-.79.21l-1.48 2.53-.51-.29a.56.56 0 00-.44-.06.61.61 0 00-.36.27.59.59 0 00.22.8l.51.29-5 8.59L22.4 24l-.58 1.09a1.75 1.75 0 00.09 1.91l-1.31 1.59-.37-.93a1.17 1.17 0 00-2.08-.16l-.21.36-.2-2.34a1.17 1.17 0 00-2.27-.27L14 29.55a.58.58 0 00.36.74.61.61 0 00.18.05.59.59 0 00.56-.4l1.43-4.31.2 2.37a1.17 1.17 0 002.17.5l.21-.35.36.91a1.19 1.19 0 00.92.73 1.16 1.16 0 001.08-.43l1.36-1.72a1.77 1.77 0 002-.81l.59-1 2.22-2.7 5-8.7.51.29a.61.61 0 01.27.36.56.56 0 01-.06.44l-2.3 4.08a.55.55 0 00-.08.45.58.58 0 00.71.43.55.55 0 00.31-.28l2.34-4a1.76 1.76 0 00.17-1.33 1.73 1.73 0 00-.81-1.06l-.51-.29 1.5-2.52a.58.58 0 00-.21-.79l.29-.51a1.75 1.75 0 00.17-1.41zm-2.19.17a.55.55 0 01.35-.28.66.66 0 01.44.06.59.59 0 01.28.36.61.61 0 01-.06.44l-.29.51-1-.58zm-8 16.29l-.29-.17-.86-.5.83-2.22 1.83 1.06zM23 26.43a.58.58 0 01-.17-.76l.29-.51 1 .58-.29.51a.56.56 0 01-.38.27.54.54 0 01-.45-.09zM27 22l-2-1.2 4.67-8.09 2 1.17zm5.25-9.09l-2-1.17 1.17-2 2 1.17zM9.21 26.14L7.14 28.2 5.9 27a.58.58 0 00-1 .42.58.58 0 00.17.41L6.32 29a1.15 1.15 0 00.82.34A1.17 1.17 0 008 29l2-2a.58.58 0 00-.82-.82z"/><path class="ecls-1" d="M2.33 27.71a5 5 0 009.92 0 .58.58 0 00-.58-.58.59.59 0 00-.59.58 3.79 3.79 0 11-1.51-3 .59.59 0 00.7-.94 5 5 0 00-7.94 4zM21 4.67a.59.59 0 000-1.17H5.83a.58.58 0 00-.58.58v2.34a.58.58 0 00.58.58H21a.59.59 0 000-1.17H6.42V4.67zM7.58 8.17a.58.58 0 100 1.16h11.67a.58.58 0 100-1.16zm15.17 4.08H9.92a.59.59 0 100 1.17h12.83a.59.59 0 000-1.17zm-5.83 4.08a.58.58 0 00-.59-.58H4.67a.59.59 0 100 1.17h11.66a.58.58 0 00.59-.59zm5.83-.58h-4.08a.59.59 0 100 1.17h4.08a.59.59 0 000-1.17zM10.5 19.83a.58.58 0 000-1.16H4.67a.58.58 0 100 1.16zm2.33 0h4.09a.58.58 0 000-1.16h-4.09a.58.58 0 100 1.16z"/><path class="ecls-1" d="M26.25 26.83a.59.59 0 00-.58.59v5.83a.59.59 0 01-.59.59H1.75a.59.59 0 01-.58-.59V1.75a.58.58 0 01.58-.58h23.33a.58.58 0 01.59.58v11a.58.58 0 001.16 0v-11A1.75 1.75 0 0025.08 0H1.75A1.75 1.75 0 000 1.75v31.5A1.75 1.75 0 001.75 35h23.33a1.75 1.75 0 001.75-1.75v-5.83a.59.59 0 00-.58-.59z"/></g></g></symbol><symbol viewBox="0 0 35 35.41" id="get4" xmlns="http://www.w3.org/2000/svg"><defs><style>.fcls-1{fill:#fff}</style></defs><g id="fСлой_2" data-name="Слой 2"><g id="fСлой_1-2" data-name="Слой 1"><path class="fcls-1" d="M21.28 17.8a2.05 2.05 0 00.3 2.31 2.1 2.1 0 00.85.54 1.27 1.27 0 01.83.83 2 2 0 00.54.85 2 2 0 001.35.52 2.06 2.06 0 001.46-.6l5.67-5.67a2 2 0 00.07-2.81 1.93 1.93 0 00-.84-.54 1.29 1.29 0 01-.83-.84 2.15 2.15 0 00-.55-.85 2 2 0 00-2.29-.29l-6.21-6.2a2 2 0 00-.3-2.3 2.12 2.12 0 00-.84-.55 1.29 1.29 0 01-.84-.83 2 2 0 00-.54-.85A2 2 0 0016.3.6l-5.67 5.67a2 2 0 00-.08 2.81 2 2 0 00.85.54 1.27 1.27 0 01.83.83 2.1 2.1 0 00.54.85 2 2 0 001.36.53 2.14 2.14 0 00.95-.23l1.74 1.74L.63 29.54a2.13 2.13 0 003 3l16.2-16.2zm10.34-3.34a1 1 0 01-.06 1.4l-5.67 5.68a1 1 0 01-1.4.05 1 1 0 01-.27-.42 2 2 0 00-.25-.53l6.71-6.7a2.41 2.41 0 00.51.25.93.93 0 01.43.27zm-2.17-2.18a1.17 1.17 0 01.27.42 2.32 2.32 0 00.24.53l-6.7 6.7a2.76 2.76 0 00-.52-.25 1.13 1.13 0 01-.43-.26 1 1 0 01.06-1.42l2.84-2.84L28 12.33a1.08 1.08 0 01.74-.3 1 1 0 01.71.25zM11.3 8.39a1 1 0 010-1.4L17 1.31a1.1 1.1 0 01.76-.31 1 1 0 01.66.26 1 1 0 01.27.42 2.27 2.27 0 00.25.52l-6.71 6.71a2.09 2.09 0 00-.52-.25.87.87 0 01-.41-.27zm2.16 2.18a1.08 1.08 0 01-.27-.43 2 2 0 00-.19-.52l6.7-6.7a2.32 2.32 0 00.53.24 1 1 0 01.41.27 1 1 0 01-.05 1.41l-5.67 5.67a1 1 0 01-1.46.06zM21 5.83l6.07 6.07-2.56 2.56L21.93 17l-6.07-6zm-18 26a1.12 1.12 0 01-1.59-1.58l16.2-16.2 1.59 1.59zm32 .92a.49.49 0 00-.1-.3l-2.06-2.69v-1.22a.5.5 0 00-.5-.51H18.21a.51.51 0 00-.51.51v1.22l-2 2.69a.49.49 0 00-.1.3v2.15a.5.5 0 00.5.51h18.4a.5.5 0 00.5-.51zM18.71 29h13.13v.39H18.71V29zm-.25 1.4h13.63l1.39 1.81H17.07zm-1.9 4v-1.14H34v1.14z"/><path class="fcls-1" d="M24.87 12.16a.51.51 0 00.36.15.49.49 0 00.35-.15.49.49 0 000-.72l-4.14-4.15a.51.51 0 10-.72.72z"/></g></g></symbol><symbol viewBox="0 0 12 21.8" id="left" xmlns="http://www.w3.org/2000/svg"><g data-name="Слой 2"><g data-name="Слой 1"><path data-name="Chevron Right" d="M.32 11.68l9.8 9.79a1.1 1.1 0 001.56 0 1.09 1.09 0 000-1.55l-9-9 9-9a1.1 1.1 0 00-1.56-1.6l-9.8 9.8a1.1 1.1 0 000 1.56z"/></g></g></symbol><symbol viewBox="0 0 473.806 473.806" id="phone" xmlns="http://www.w3.org/2000/svg"><path d="M374.456 293.506c-9.7-10.1-21.4-15.5-33.8-15.5-12.3 0-24.1 5.3-34.2 15.4l-31.6 31.5c-2.6-1.4-5.2-2.7-7.7-4-3.6-1.8-7-3.5-9.9-5.3-29.6-18.8-56.5-43.3-82.3-75-12.5-15.8-20.9-29.1-27-42.6 8.2-7.5 15.8-15.3 23.2-22.8 2.8-2.8 5.6-5.7 8.4-8.5 21-21 21-48.2 0-69.2l-27.3-27.3c-3.1-3.1-6.3-6.3-9.3-9.5-6-6.2-12.3-12.6-18.8-18.6-9.7-9.6-21.3-14.7-33.5-14.7s-24 5.1-34 14.7l-.2.2-34 34.3c-12.8 12.8-20.1 28.4-21.7 46.5-2.4 29.2 6.2 56.4 12.8 74.2 16.2 43.7 40.4 84.2 76.5 127.6 43.8 52.3 96.5 93.6 156.7 122.7 23 10.9 53.7 23.8 88 26 2.1.1 4.3.2 6.3.2 23.1 0 42.5-8.3 57.7-24.8.1-.2.3-.3.4-.5 5.2-6.3 11.2-12 17.5-18.1 4.3-4.1 8.7-8.4 13-12.9 9.9-10.3 15.1-22.3 15.1-34.6 0-12.4-5.3-24.3-15.4-34.3l-54.9-55.1zm35.8 105.3c-.1 0-.1.1 0 0-3.9 4.2-7.9 8-12.2 12.2-6.5 6.2-13.1 12.7-19.3 20-10.1 10.8-22 15.9-37.6 15.9-1.5 0-3.1 0-4.6-.1-29.7-1.9-57.3-13.5-78-23.4-56.6-27.4-106.3-66.3-147.6-115.6-34.1-41.1-56.9-79.1-72-119.9-9.3-24.9-12.7-44.3-11.2-62.6 1-11.7 5.5-21.4 13.8-29.7l34.1-34.1c4.9-4.6 10.1-7.1 15.2-7.1 6.3 0 11.4 3.8 14.6 7l.3.3c6.1 5.7 11.9 11.6 18 17.9 3.1 3.2 6.3 6.4 9.5 9.7l27.3 27.3c10.6 10.6 10.6 20.4 0 31-2.9 2.9-5.7 5.8-8.6 8.6-8.4 8.6-16.4 16.6-25.1 24.4-.2.2-.4.3-.5.5-8.6 8.6-7 17-5.2 22.7l.3.9c7.1 17.2 17.1 33.4 32.3 52.7l.1.1c27.6 34 56.7 60.5 88.8 80.8 4.1 2.6 8.3 4.7 12.3 6.7 3.6 1.8 7 3.5 9.9 5.3.4.2.8.5 1.2.7 3.4 1.7 6.6 2.5 9.9 2.5 8.3 0 13.5-5.2 15.2-6.9l34.2-34.2c3.4-3.4 8.8-7.5 15.1-7.5 6.2 0 11.3 3.9 14.4 7.3l.2.2 55.1 55.1c10.3 10.2 10.3 20.7.1 31.3zm-154.2-286.1c26.2 4.4 50 16.8 69 35.8s31.3 42.8 35.8 69c1.1 6.6 6.8 11.2 13.3 11.2.8 0 1.5-.1 2.3-.2 7.4-1.2 12.3-8.2 11.1-15.6-5.4-31.7-20.4-60.6-43.3-83.5s-51.8-37.9-83.5-43.3c-7.4-1.2-14.3 3.7-15.6 11s3.5 14.4 10.9 15.6zm217.2 96.3c-8.9-52.2-33.5-99.7-71.3-137.5s-85.3-62.4-137.5-71.3c-7.3-1.3-14.2 3.7-15.5 11-1.2 7.4 3.7 14.3 11.1 15.6 46.6 7.9 89.1 30 122.9 63.7 33.8 33.8 55.8 76.3 63.7 122.9 1.1 6.6 6.8 11.2 13.3 11.2.8 0 1.5-.1 2.3-.2 7.3-1.1 12.3-8.1 11-15.4z"/></symbol><symbol viewBox="0 0 12 21.8" id="right" xmlns="http://www.w3.org/2000/svg"><g data-name="Слой 2"><g data-name="Слой 1"><path data-name="Chevron Right" d="M11.68 10.12L1.88.32A1.1 1.1 0 00.32 1.88l9 9-9 9a1.09 1.09 0 000 1.55 1.1 1.1 0 001.56 0l9.8-9.79a1.1 1.1 0 000-1.52z"/></g></g></symbol></svg>