<svg xmlns="http://www.w3.org/2000/svg" viewBox="0 0 45.43 45.43"><defs><style>.cls-1{fill:#efe6d8;}</style></defs><title>coctact</title><g id="Слой_2" data-name="Слой 2"><g id="Слой_1-2" data-name="Слой 1"><path class="cls-1" d="M32.25,0H13.18A3.35,3.35,0,0,0,9.84,3.34V42.1a3.34,3.34,0,0,0,3.34,3.33H32.25a3.34,3.34,0,0,0,3.34-3.33V3.34A3.35,3.35,0,0,0,32.25,0ZM11.36,6.06H34.08V34.83H11.36Zm1.82-4.55H32.25a1.83,1.83,0,0,1,1.83,1.83v1.2H11.36V3.34A1.82,1.82,0,0,1,13.18,1.51ZM32.25,43.92H13.18a1.82,1.82,0,0,1-1.82-1.82V36.35H34.08V42.1A1.83,1.83,0,0,1,32.25,43.92Z"/><path class="cls-1" d="M22.72,37.11a3,3,0,1,0,3,3A3,3,0,0,0,22.72,37.11Zm0,4.54a1.52,1.52,0,1,1,1.51-1.52A1.52,1.52,0,0,1,22.72,41.65Z"/><path class="cls-1" d="M19.69,3.79h3a.76.76,0,0,0,0-1.52h-3a.76.76,0,1,0,0,1.52Z"/><path class="cls-1" d="M25,3.79h.76a.76.76,0,0,0,0-1.52H25a.76.76,0,0,0,0,1.52Z"/><path class="cls-1" d="M42.87,3.46A.76.76,0,1,0,41.8,4.53a7.26,7.26,0,0,1,0,10.26.75.75,0,0,0,0,1.07.74.74,0,0,0,.53.23.76.76,0,0,0,.54-.23A8.78,8.78,0,0,0,42.87,3.46Z"/><path class="cls-1" d="M39.68,5.18a.77.77,0,0,0-1.07,0,.75.75,0,0,0,0,1.07,5,5,0,0,1,0,7,.76.76,0,0,0,1.07,1.07,6.48,6.48,0,0,0,0-9.17Z"/><path class="cls-1" d="M3.64,4.53A.76.76,0,0,0,2.56,3.46a8.79,8.79,0,0,0,0,12.4.75.75,0,0,0,1.08,0,.77.77,0,0,0,0-1.07A7.26,7.26,0,0,1,3.64,4.53Z"/><path class="cls-1" d="M6.82,5A.77.77,0,0,0,5.75,5a6.51,6.51,0,0,0,0,9.17.76.76,0,0,0,.54.22.73.73,0,0,0,.53-.22.75.75,0,0,0,0-1.07,5,5,0,0,1,0-7A.75.75,0,0,0,6.82,5Z"/></g></g></svg>