<svg xmlns="http://www.w3.org/2000/svg" viewBox="0 0 34 38.59"><defs><style>.cls-1{fill:#fff;}</style></defs><title>get1</title><g id="Слой_2" data-name="Слой 2"><g id="Слой_1-2" data-name="Слой 1"><path class="cls-1" d="M17.45,21.06a.81.81,0,0,0-.22,0A1.43,1.43,0,0,1,16,19.63a.64.64,0,0,0-.63-.64.64.64,0,0,0-.64.64,2.72,2.72,0,0,0,2,2.61v.63a.64.64,0,0,0,.64.63.63.63,0,0,0,.63-.63v-.6a2.7,2.7,0,0,0-.56-5.35,1.44,1.44,0,1,1,1.44-1.43.64.64,0,0,0,1.27,0A2.72,2.72,0,0,0,18,12.84v-.57a.63.63,0,0,0-.63-.64.64.64,0,0,0-.64.64v.61a2.7,2.7,0,0,0,.71,5.31,1.44,1.44,0,0,1,.06,2.87Z"/><path class="cls-1" d="M8.22,17.61a9.18,9.18,0,1,0,9.17-9.18A9.18,9.18,0,0,0,8.22,17.61Zm9.17-7.92a7.92,7.92,0,1,1-7.91,7.92A7.92,7.92,0,0,1,17.39,9.69Z"/><path class="cls-1" d="M29.69,28.35l-5,2.34a4,4,0,0,0-3.45-2.12l-4.57-.13a4.77,4.77,0,0,1-2.09-.54l-.46-.24a8.22,8.22,0,0,0-7.61,0l0-1.06A.64.64,0,0,0,6,26l-5-.14a.65.65,0,0,0-.65.62l-.3,11a.64.64,0,0,0,.62.66l5,.13h0a.62.62,0,0,0,.63-.61l0-.53,1.3-.7a2.26,2.26,0,0,1,1.67-.18l7.79,2.19h0a8.21,8.21,0,0,0,1.71.18,8.4,8.4,0,0,0,3.53-.77l.08,0,11.29-7.3a.65.65,0,0,0,.21-.85A3.21,3.21,0,0,0,29.69,28.35ZM1.28,36.86l.27-9.75,3.75.1L5,37Zm20.49-.17a7.19,7.19,0,0,1-4.39.49L9.62,35A3.49,3.49,0,0,0,7,35.29l-.67.35.18-6.48a7,7,0,0,1,7.07-.38l.46.25a6.18,6.18,0,0,0,2.63.68l4.58.12A2.77,2.77,0,0,1,23.9,32l-6.82-.18a.62.62,0,0,0-.65.61.63.63,0,0,0,.61.65l7.53.21h0a.64.64,0,0,0,.63-.62,3.78,3.78,0,0,0-.06-.82l5.08-2.4h0a1.93,1.93,0,0,1,2.19.31Z"/><path class="cls-1" d="M18,6.65v-6A.64.64,0,0,0,17.39,0a.63.63,0,0,0-.63.63v6a.63.63,0,0,0,.63.63A.64.64,0,0,0,18,6.65Z"/><path class="cls-1" d="M22.78,6.65V3.8a.64.64,0,0,0-.64-.63.63.63,0,0,0-.63.63V6.65a.63.63,0,0,0,.63.63A.64.64,0,0,0,22.78,6.65Z"/><path class="cls-1" d="M13.28,6.65V3.8a.63.63,0,0,0-.63-.63A.64.64,0,0,0,12,3.8V6.65a.64.64,0,0,0,.64.63A.63.63,0,0,0,13.28,6.65Z"/></g></g></svg>