<svg xmlns="http://www.w3.org/2000/svg" viewBox="0 0 33 33"><defs><style>.cls-1{fill:#fff;}</style></defs><title>get2</title><g id="Слой_2" data-name="Слой 2"><g id="Слой_1-2" data-name="Слой 1"><g id="surface1"><path class="cls-1" d="M27.5,5.83V2.75A2.75,2.75,0,0,0,24.75,0h-22A2.75,2.75,0,0,0,0,2.75v12.1a2.75,2.75,0,0,0,2.47,2.72l2.07,5.37a2.75,2.75,0,0,0,3.55,1.58l12.91-5a8,8,0,0,0,.68,7.06l.32.51v5.34a.55.55,0,0,0,.55.55h9.9a.55.55,0,0,0,.55-.55V14.3a7.18,7.18,0,0,0-2.11-5.07Zm0,3.29,1.67,4.33a1.65,1.65,0,0,1-1,2.13l-.95.37a2.78,2.78,0,0,0,.23-1.1ZM1.1,14.85V2.75A1.65,1.65,0,0,1,2.75,1.1h22A1.65,1.65,0,0,1,26.4,2.75v3.5h0v8.59a1.26,1.26,0,0,1,0,.28l-5-5a2.94,2.94,0,0,0-4.24,4.06l2.15,2.34H2.75A1.65,1.65,0,0,1,1.1,14.85ZM8.15,17.6,4.23,19.11,3.66,17.6Zm-.46,5.89a1.65,1.65,0,0,1-2.13-.95l-.93-2.41L11.2,17.6h9.05l.71.78ZM31.9,31.9H23.1V27.5h8.8Zm0-5.5h-9L22.62,26a6.86,6.86,0,0,1-.14-7,.55.55,0,0,0-.07-.64L17.9,13.42A1.85,1.85,0,0,1,18,10.85a1.84,1.84,0,0,1,2.57,0l8.76,8.76.78-.78-2-2,.57-.22a2.76,2.76,0,0,0,1.57-3.56L28.33,8.22,30.12,10a6.13,6.13,0,0,1,1.78,4.3Z"/><path class="cls-1" d="M6.27,7.7A1.43,1.43,0,0,0,7.7,6.27V3.63A1.43,1.43,0,0,0,6.27,2.2H3.63A1.43,1.43,0,0,0,2.2,3.63V6.27A1.43,1.43,0,0,0,3.63,7.7Zm-3-1.43V5.5H4.4V4.4H3.3V3.63a.33.33,0,0,1,.33-.33H6.27a.33.33,0,0,1,.33.33V4.4H5.5V5.5H6.6v.77a.33.33,0,0,1-.33.33H3.63A.33.33,0,0,1,3.3,6.27Z"/><path class="cls-1" d="M2.75,9.35H5v1.1H2.75Z"/><path class="cls-1" d="M2.75,12.65H5v1.1H2.75Z"/><path class="cls-1" d="M12.65,12.65h2.2v1.1h-2.2Z"/><path class="cls-1" d="M6.05,9.35h2.2v1.1H6.05Z"/><path class="cls-1" d="M9.35,9.35h2.2v1.1H9.35Z"/><path class="cls-1" d="M12.65,9.35h2.2v1.1h-2.2Z"/><path class="cls-1" d="M23.1,2.75h1.1V4.4H23.1Z"/><path class="cls-1" d="M20.9,2.75H22V4.4H20.9Z"/><path class="cls-1" d="M18.7,2.75h1.1V4.4H18.7Z"/><path class="cls-1" d="M16.5,2.75h1.1V4.4H16.5Z"/><path class="cls-1" d="M24.2,28.6h1.1v1.1H24.2Z"/></g></g></g></svg>