<svg xmlns="http://www.w3.org/2000/svg" viewBox="0 0 35.01 35"><defs><style>.cls-1{fill:#fff;}</style></defs><title>get3</title><g id="Слой_2" data-name="Слой 2"><g id="Слой_1-2" data-name="Слой 1"><path class="cls-1" d="M34.94,8.29A1.74,1.74,0,0,0,32.8,7.06a1.71,1.71,0,0,0-1.06.82l-.3.5a.59.59,0,0,0-.79.21l-1.48,2.53-.51-.29a.56.56,0,0,0-.44-.06.61.61,0,0,0-.36.27.59.59,0,0,0,.22.8l.51.29-5,8.59L22.4,24l-.58,1.09A1.75,1.75,0,0,0,21.91,27L20.6,28.59l-.37-.93a1.17,1.17,0,0,0-2.08-.16l-.21.36-.2-2.34a1.17,1.17,0,0,0-2.27-.27L14,29.55a.58.58,0,0,0,.36.74.61.61,0,0,0,.18.05.59.59,0,0,0,.56-.4l1.43-4.31.2,2.37a1.17,1.17,0,0,0,2.17.5l.21-.35.36.91a1.19,1.19,0,0,0,.92.73,1.16,1.16,0,0,0,1.08-.43l1.36-1.72a1.77,1.77,0,0,0,2-.81l.59-1,2.22-2.7,5-8.7.51.29a.61.61,0,0,1,.27.36.56.56,0,0,1-.06.44L31.06,19.6a.55.55,0,0,0-.08.45.58.58,0,0,0,.71.43A.55.55,0,0,0,32,20.2l2.34-4a1.76,1.76,0,0,0,.17-1.33,1.73,1.73,0,0,0-.81-1.06l-.51-.29L34.69,11a.58.58,0,0,0-.21-.79l.29-.51A1.75,1.75,0,0,0,34.94,8.29Zm-2.19.17a.55.55,0,0,1,.35-.28.66.66,0,0,1,.44.06.59.59,0,0,1,.28.36.61.61,0,0,1-.06.44l-.29.51-1-.58Zm-8,16.29-.29-.17-.86-.5.83-2.22,1.83,1.06ZM23,26.43a.58.58,0,0,1-.17-.76l.29-.51,1,.58-.29.51a.56.56,0,0,1-.38.27A.54.54,0,0,1,23,26.43ZM27,22,25,20.8l4.67-8.09,2,1.17Zm5.25-9.09-2-1.17,1.17-2,2,1.17Z"/><path class="cls-1" d="M9.21,26.14,7.14,28.2,5.9,27a.58.58,0,0,0-1,.42.58.58,0,0,0,.17.41L6.32,29a1.15,1.15,0,0,0,.82.34A1.17,1.17,0,0,0,8,29L10,27a.58.58,0,0,0-.82-.82Z"/><path class="cls-1" d="M2.33,27.71a5,5,0,0,0,9.92,0,.58.58,0,0,0-.58-.58.59.59,0,0,0-.59.58,3.79,3.79,0,1,1-1.51-3,.59.59,0,0,0,.7-.94,5,5,0,0,0-7.94,4Z"/><path class="cls-1" d="M21,4.67A.59.59,0,0,0,21,3.5H5.83a.58.58,0,0,0-.58.58V6.42A.58.58,0,0,0,5.83,7H21a.59.59,0,0,0,0-1.17H6.42V4.67Z"/><path class="cls-1" d="M7.58,8.17a.58.58,0,1,0,0,1.16H19.25a.58.58,0,1,0,0-1.16Z"/><path class="cls-1" d="M22.75,12.25H9.92a.59.59,0,1,0,0,1.17H22.75a.59.59,0,0,0,0-1.17Z"/><path class="cls-1" d="M16.92,16.33a.58.58,0,0,0-.59-.58H4.67a.59.59,0,1,0,0,1.17H16.33A.58.58,0,0,0,16.92,16.33Z"/><path class="cls-1" d="M22.75,15.75H18.67a.59.59,0,1,0,0,1.17h4.08a.59.59,0,0,0,0-1.17Z"/><path class="cls-1" d="M10.5,19.83a.58.58,0,0,0,0-1.16H4.67a.58.58,0,1,0,0,1.16Z"/><path class="cls-1" d="M12.83,19.83h4.09a.58.58,0,0,0,0-1.16H12.83a.58.58,0,1,0,0,1.16Z"/><path class="cls-1" d="M26.25,26.83a.59.59,0,0,0-.58.59v5.83a.59.59,0,0,1-.59.59H1.75a.59.59,0,0,1-.58-.59V1.75a.58.58,0,0,1,.58-.58H25.08a.58.58,0,0,1,.59.58v11a.58.58,0,0,0,1.16,0v-11A1.75,1.75,0,0,0,25.08,0H1.75A1.75,1.75,0,0,0,0,1.75v31.5A1.75,1.75,0,0,0,1.75,35H25.08a1.75,1.75,0,0,0,1.75-1.75V27.42A.59.59,0,0,0,26.25,26.83Z"/></g></g></svg>