<svg xmlns="http://www.w3.org/2000/svg" viewBox="0 0 35 35.41"><defs><style>.cls-1{fill:#fff;}</style></defs><title>get4</title><g id="Слой_2" data-name="Слой 2"><g id="Слой_1-2" data-name="Слой 1"><path class="cls-1" d="M21.28,17.8a2.05,2.05,0,0,0,.3,2.31,2.1,2.1,0,0,0,.85.54,1.27,1.27,0,0,1,.83.83,2,2,0,0,0,.54.85,2,2,0,0,0,1.35.52,2.06,2.06,0,0,0,1.46-.6l5.67-5.67a2,2,0,0,0,.07-2.81,1.93,1.93,0,0,0-.84-.54,1.29,1.29,0,0,1-.83-.84,2.15,2.15,0,0,0-.55-.85,2,2,0,0,0-2.29-.29l-6.21-6.2a2,2,0,0,0-.3-2.3,2.12,2.12,0,0,0-.84-.55,1.29,1.29,0,0,1-.84-.83,2,2,0,0,0-.54-.85A2,2,0,0,0,16.3.6L10.63,6.27a2,2,0,0,0-.08,2.81,2,2,0,0,0,.85.54,1.27,1.27,0,0,1,.83.83,2.1,2.1,0,0,0,.54.85,2,2,0,0,0,1.36.53,2.14,2.14,0,0,0,.95-.23l1.74,1.74L.63,29.54a2.13,2.13,0,0,0,3,3l16.2-16.2Zm10.34-3.34h0a1,1,0,0,1-.06,1.4l-5.67,5.68a1,1,0,0,1-1.4.05,1,1,0,0,1-.27-.42,2,2,0,0,0-.25-.53l6.71-6.7a2.41,2.41,0,0,0,.51.25A.93.93,0,0,1,31.62,14.46Zm-2.17-2.18a1.17,1.17,0,0,1,.27.42,2.32,2.32,0,0,0,.24.53l-6.7,6.7a2.76,2.76,0,0,0-.52-.25,1.13,1.13,0,0,1-.43-.26A1,1,0,0,1,22.37,18l2.84-2.84L28,12.33a1.08,1.08,0,0,1,.74-.3A1,1,0,0,1,29.45,12.28ZM11.3,8.39a1,1,0,0,1,0-1.4L17,1.31A1.1,1.1,0,0,1,17.76,1a1,1,0,0,1,.66.26,1,1,0,0,1,.27.42,2.27,2.27,0,0,0,.25.52L12.23,8.91a2.09,2.09,0,0,0-.52-.25A.87.87,0,0,1,11.3,8.39Zm2.16,2.18a1.08,1.08,0,0,1-.27-.43A2,2,0,0,0,13,9.62l6.7-6.7a2.32,2.32,0,0,0,.53.24,1,1,0,0,1,.41.27h0a1,1,0,0,1-.05,1.41l-5.67,5.67A1,1,0,0,1,13.46,10.57ZM21,5.83l6.07,6.07-2.56,2.56L21.93,17,15.86,11Zm-18,26a1.12,1.12,0,0,1-1.59-1.58l16.2-16.2,1.59,1.59Z"/><path class="cls-1" d="M35,32.75a.49.49,0,0,0-.1-.3l-2.06-2.69V28.54a.5.5,0,0,0-.5-.51H18.21a.51.51,0,0,0-.51.51v1.22l-2,2.69a.49.49,0,0,0-.1.3V34.9a.5.5,0,0,0,.5.51H34.5a.5.5,0,0,0,.5-.51ZM18.71,29H31.84v.39H18.71V29Zm-.25,1.4H32.09l1.39,1.81H17.07Zm-1.9,4V33.26H34V34.4Z"/><path class="cls-1" d="M24.87,12.16a.51.51,0,0,0,.36.15.49.49,0,0,0,.35-.15.49.49,0,0,0,0-.72L21.44,7.29a.51.51,0,1,0-.72.72Z"/></g></g></svg>